<svg id="Grupo_21" data-name="Grupo 21" xmlns="http://www.w3.org/2000/svg" width="35.198" height="35.115" viewBox="0 0 35.198 35.115"><path id="Caminho_8" data-name="Caminho 8" d="M-2062.988-1010.171h7.3v23.459h-7.3Zm3.653-11.656a4.227,4.227,0,0,1,4.226,4.223,4.232,4.232,0,0,1-4.226,4.232,4.234,4.234,0,0,1-4.235-4.232,4.228,4.228,0,0,1,4.235-4.223" transform="translate(2063.57 1021.827)" fill="#fff"></path><path id="Caminho_9" data-name="Caminho 9" d="M-2059.5-1017.624h6.994v3.208h.095a7.665,7.665,0,0,1,6.9-3.789c7.384,0,8.745,4.856,8.745,11.173v12.867h-7.286v-11.405c0-2.725-.052-6.223-3.789-6.223-3.8,0-4.376,2.963-4.376,6.024v11.6h-7.287Z" transform="translate(2071.955 1029.28)" fill="#fff"></path></svg>