<svg id="Grupo_22" data-name="Grupo 22" xmlns="http://www.w3.org/2000/svg" width="40.183" height="28.125" viewBox="0 0 40.183 28.125"><path id="Caminho_10" data-name="Caminho 10" d="M-2059.075-1011.7a8.817,8.817,0,0,0-8.819-8.816h-22.545a8.817,8.817,0,0,0-8.819,8.816v10.494a8.817,8.817,0,0,0,8.819,8.816h22.545a8.817,8.817,0,0,0,8.819-8.816Zm-13.261,6.033-10.11,5c-.4.214-1.743-.073-1.743-.523v-10.268c0-.456,1.358-.743,1.755-.517l9.677,5.265C-2072.352-1006.479-2071.924-1005.892-2072.336-1005.669Z" transform="translate(2099.257 1020.517)" fill="#fff"></path></svg>