<svg xmlns="http://www.w3.org/2000/svg" width="33.703" height="33.706" viewBox="0 0 33.703 33.706"><g id="Grupo_23" data-name="Grupo 23"><path id="Caminho_11" data-name="Caminho 11" d="M-2123.312-1019.294a1.977,1.977,0,0,0-1.976,1.975,1.977,1.977,0,0,0,1.976,1.979,1.977,1.977,0,0,0,1.975-1.979A1.976,1.976,0,0,0-2123.312-1019.294Z" transform="translate(2149.085 1025.312)" fill="#fff"></path><path id="Caminho_12" data-name="Caminho 12" d="M-2121.929-1018.465a8.31,8.31,0,0,0-8.3,8.3,8.311,8.311,0,0,0,8.3,8.3,8.312,8.312,0,0,0,8.3-8.3A8.311,8.311,0,0,0-2121.929-1018.465Zm0,13.616a5.322,5.322,0,0,1-5.314-5.317,5.322,5.322,0,0,1,5.314-5.315,5.323,5.323,0,0,1,5.318,5.315A5.323,5.323,0,0,1-2121.929-1004.849Z" transform="translate(2138.918 1027.018)" fill="#fff"></path><path id="Caminho_13" data-name="Caminho 13" d="M-2109.491-987.556h-13.455a10.137,10.137,0,0,1-10.125-10.124v-13.457a10.135,10.135,0,0,1,10.125-10.124h13.455a10.134,10.134,0,0,1,10.124,10.124v13.457A10.136,10.136,0,0,1-2109.491-987.556Zm-13.455-30.535a6.96,6.96,0,0,0-6.953,6.953v13.457a6.961,6.961,0,0,0,6.953,6.953h13.455a6.961,6.961,0,0,0,6.953-6.953v-13.457a6.961,6.961,0,0,0-6.953-6.953Z" transform="translate(2133.07 1021.262)" fill="#fff"></path></g></svg>